<mxfile host="Electron" modified="2023-05-24T00:19:18.200Z" agent="Mozilla/5.0 (Windows NT 10.0; Win64; x64) AppleWebKit/537.36 (KHTML, like Gecko) draw.io/21.2.8 Chrome/112.0.5615.165 Electron/24.2.0 Safari/537.36" etag="Qu-Yvn_wLz2p84HCMATI" version="21.2.8" type="device">
  <diagram name="Page-1" id="90a13364-a465-7bf4-72fc-28e22215d7a0">
    <mxGraphModel dx="1332" dy="588" grid="0" gridSize="10" guides="1" tooltips="1" connect="1" arrows="1" fold="1" page="1" pageScale="1.5" pageWidth="1169" pageHeight="826" background="none" math="0" shadow="0">
      <root>
        <mxCell id="0" style=";html=1;" />
        <mxCell id="1" style=";html=1;" parent="0" />
        <mxCell id="bi3lSq-Dq2ki6sbz7ZrA-4" value="&lt;font style=&quot;font-size: 16px;&quot;&gt;Frontend&amp;nbsp; &amp;nbsp; &amp;nbsp; &amp;nbsp; &amp;nbsp;&lt;br&gt;&lt;br&gt;&lt;br&gt;&lt;br&gt;&lt;br&gt;&lt;/font&gt;" style="rounded=0;whiteSpace=wrap;html=1;align=right;" vertex="1" parent="1">
          <mxGeometry x="531" y="94" width="451" height="125" as="geometry" />
        </mxCell>
        <mxCell id="bi3lSq-Dq2ki6sbz7ZrA-5" value="&lt;font style=&quot;font-size: 16px;&quot;&gt;Backend&amp;nbsp; &amp;nbsp; &amp;nbsp; &amp;nbsp; &amp;nbsp;&lt;br&gt;&lt;br&gt;&lt;br&gt;&lt;br&gt;&lt;br&gt;&lt;br&gt;&lt;br&gt;&lt;br&gt;&lt;br&gt;&lt;br&gt;&lt;br&gt;&lt;br&gt;&lt;br&gt;&lt;br&gt;&lt;br&gt;&lt;br&gt;&lt;/font&gt;" style="rounded=0;whiteSpace=wrap;html=1;align=right;" vertex="1" parent="1">
          <mxGeometry x="531" y="219" width="451" height="344" as="geometry" />
        </mxCell>
        <mxCell id="5xMvFER_81tlKy8niOjR-1" value="DOMAIN" style="rounded=0;whiteSpace=wrap;html=1;" parent="1" vertex="1">
          <mxGeometry x="750.25" y="466" width="120" height="60" as="geometry" />
        </mxCell>
        <mxCell id="bi3lSq-Dq2ki6sbz7ZrA-15" style="edgeStyle=orthogonalEdgeStyle;rounded=0;orthogonalLoop=1;jettySize=auto;html=1;entryX=0.5;entryY=0;entryDx=0;entryDy=0;" edge="1" parent="1" source="5xMvFER_81tlKy8niOjR-2" target="5xMvFER_81tlKy8niOjR-1">
          <mxGeometry relative="1" as="geometry" />
        </mxCell>
        <mxCell id="bi3lSq-Dq2ki6sbz7ZrA-16" style="edgeStyle=orthogonalEdgeStyle;rounded=0;orthogonalLoop=1;jettySize=auto;html=1;entryX=0.5;entryY=0;entryDx=0;entryDy=0;" edge="1" parent="1" source="5xMvFER_81tlKy8niOjR-2" target="5xMvFER_81tlKy8niOjR-4">
          <mxGeometry relative="1" as="geometry" />
        </mxCell>
        <mxCell id="5xMvFER_81tlKy8niOjR-2" value="INFRASTRUCTURE" style="whiteSpace=wrap;html=1;rounded=0;" parent="1" vertex="1">
          <mxGeometry x="673" y="348" width="120" height="60" as="geometry" />
        </mxCell>
        <mxCell id="5xMvFER_81tlKy8niOjR-4" value="APPLICATION" style="whiteSpace=wrap;html=1;rounded=0;" parent="1" vertex="1">
          <mxGeometry x="586.75" y="466" width="120" height="60" as="geometry" />
        </mxCell>
        <mxCell id="bi3lSq-Dq2ki6sbz7ZrA-13" style="edgeStyle=orthogonalEdgeStyle;rounded=0;orthogonalLoop=1;jettySize=auto;html=1;entryX=0;entryY=0.5;entryDx=0;entryDy=0;exitX=0;exitY=0.5;exitDx=0;exitDy=0;" edge="1" parent="1" source="5xMvFER_81tlKy8niOjR-6" target="5xMvFER_81tlKy8niOjR-4">
          <mxGeometry relative="1" as="geometry">
            <Array as="points">
              <mxPoint x="560" y="293" />
              <mxPoint x="560" y="496" />
            </Array>
          </mxGeometry>
        </mxCell>
        <mxCell id="bi3lSq-Dq2ki6sbz7ZrA-14" style="edgeStyle=orthogonalEdgeStyle;rounded=0;orthogonalLoop=1;jettySize=auto;html=1;entryX=0.5;entryY=0;entryDx=0;entryDy=0;exitX=1;exitY=0.5;exitDx=0;exitDy=0;" edge="1" parent="1" source="5xMvFER_81tlKy8niOjR-6" target="5xMvFER_81tlKy8niOjR-2">
          <mxGeometry relative="1" as="geometry" />
        </mxCell>
        <mxCell id="5xMvFER_81tlKy8niOjR-6" value="API" style="whiteSpace=wrap;html=1;rounded=0;" parent="1" vertex="1">
          <mxGeometry x="586.75" y="263" width="120" height="60" as="geometry" />
        </mxCell>
        <mxCell id="bi3lSq-Dq2ki6sbz7ZrA-17" style="edgeStyle=orthogonalEdgeStyle;rounded=0;orthogonalLoop=1;jettySize=auto;html=1;entryX=0.5;entryY=0;entryDx=0;entryDy=0;dashed=1;" edge="1" parent="1" source="bi3lSq-Dq2ki6sbz7ZrA-12" target="5xMvFER_81tlKy8niOjR-6">
          <mxGeometry relative="1" as="geometry" />
        </mxCell>
        <mxCell id="bi3lSq-Dq2ki6sbz7ZrA-12" value="APP" style="rounded=0;whiteSpace=wrap;html=1;" vertex="1" parent="1">
          <mxGeometry x="586.75" y="125" width="120" height="60" as="geometry" />
        </mxCell>
      </root>
    </mxGraphModel>
  </diagram>
</mxfile>
